<svg width="97" height="100" viewBox="0 0 97 100" fill="none" xmlns="http://www.w3.org/2000/svg">
<g clip-path="url(#clip0_375_26)">
<path d="M96.242 83.3333C96.242 92.5 89.0238 100 80.2016 100H16.0403C7.21815 100 0 92.5 0 83.3333V16.6667C0 7.5 7.21815 0 16.0403 0H80.2016C89.0238 0 96.242 7.5 96.242 16.6667V83.3333Z" fill="#563D7C"/>
<path d="M26.1517 21.7324H53.436C58.4683 21.7324 62.5098 22.9252 65.5449 25.3272C68.58 27.7292 70.1054 31.3403 70.1054 36.1932C70.1054 39.1344 69.4134 41.6507 68.0296 43.7422C66.6457 45.8337 64.6642 47.4677 62.0852 48.6115V48.7749C65.5449 49.5429 68.1711 51.2422 69.9481 53.8729C71.7251 56.52 72.6215 59.8207 72.6215 63.8076C72.6215 66.0952 72.2284 68.2357 71.4421 70.2128C70.6558 72.2063 69.4292 73.922 67.7465 75.3599C66.0638 76.7978 63.9251 77.9416 61.2989 78.7912C58.6727 79.6409 55.559 80.0658 51.9421 80.0658H26.1517V21.7324ZM35.9804 46.1605H52.0207C54.3796 46.1605 56.3453 45.4743 57.9179 44.069C59.4905 42.6638 60.2767 40.6703 60.2767 38.0559C60.2767 35.1148 59.5691 33.0396 58.1538 31.8468C56.7384 30.654 54.6941 30.0494 52.0207 30.0494H35.9804V46.1605ZM35.9804 71.7324H53.3574C56.3453 71.7324 58.6727 70.9318 60.3082 69.3141C61.9594 67.7128 62.7929 65.4252 62.7929 62.4841C62.7929 59.5919 61.9751 57.386 60.3082 55.8174C58.6413 54.2488 56.3453 53.4971 53.3574 53.4971H35.9804V71.7324Z" fill="white"/>
</g>
<defs>
<clipPath id="clip0_375_26">
<rect width="96.242" height="100" fill="white"/>
</clipPath>
</defs>
</svg>
